# xmcd CD Database Entry
#
# Track frame offsets:
# 150
# 12257
# 27902
# 42512
# 59000
# 75275
# 89234
# 102123
# 114892
# 131308
# 147765
# 169345
# 184628
# 198590
#
# Disc length: 2881 seconds
#
# Revision: 2
# Processed by: cddbd v1.4PL0 Copyright (c) Steve Scherf et al.
# Submitted via: tcd 2.0b
#
DISCID=b80b3f0e
DTITLE=The Handsome Family - Down in the Valley
DYEAR=1900
DGENRE=
TTITLE0=Tin Foil
TTITLE1=My Sister's Tiny Hands
TTITLE2=Lake Geneva
TTITLE3=Weightless Again
TTITLE4=#1 Country Song
TTITLE5=The Giant of Illinois
TTITLE6=Drunk by Noon
TTITLE7=Don't be Scared
TTITLE8=The House Carpenter
TTITLE9=Arlene
TTITLE10=The Woman Downstairs
TTITLE11=Cathedrals
TTITLE12=Moving Furniture
TTITLE13=The Dutchboy
EXTD=
EXTT0=
EXTT1=
EXTT2=
EXTT3=
EXTT4=
EXTT5=
EXTT6=
EXTT7=
EXTT8=
EXTT9=
EXTT10=
EXTT11=
EXTT12=
EXTT13=
PLAYORDER=
